<?xml version="1.0" encoding="utf-8"?>
<!-- Generator: Adobe Illustrator 24.0.0, SVG Export Plug-In . SVG Version: 6.00 Build 0)  -->
<svg version="1.1" id="图层_1" xmlns="http://www.w3.org/2000/svg" xmlns:xlink="http://www.w3.org/1999/xlink" x="0px" y="0px"
	 viewBox="0 0 108 74.1" style="enable-background:new 0 0 108 74.1;" xml:space="preserve">
<style type="text/css">
	.st0{fill:#019BF0;}
</style>
<g transform="translate(22.2774658203125,104.4837646484375)">
	<g transform="translate(0,0)">
		<g>
			<path class="st0" d="M-4-101.3c0.5-1.7,2-2.9,3.7-3h17c1.2-0.1,2.2,0.8,2.3,2c0,0.3,0,0.6-0.2,0.9c-0.5,1.7-2,2.9-3.7,3h-17
				c-1.2,0.1-2.2-0.8-2.3-2C-4.1-100.7-4.1-101-4-101.3z M-4.1-89.9h16.9c1.7-0.1,3.2-1.3,3.7-3c0.4-1.1-0.1-2.4-1.2-2.8
				c-0.3-0.1-0.6-0.2-0.9-0.2h-17c-1.7,0.1-3.2,1.3-3.7,3c-0.4,1.1,0.1,2.4,1.3,2.8C-4.7-90-4.4-89.9-4.1-89.9L-4.1-89.9z
				 M-6.4-81.4h16.9c1.7-0.1,3.2-1.3,3.7-3c0.4-1.1-0.1-2.4-1.2-2.8c-0.3-0.1-0.6-0.2-0.9-0.2h-17c-1.7,0.1-3.2,1.3-3.7,3
				C-9-83.3-8.5-82-7.3-81.6C-7-81.5-6.7-81.4-6.4-81.4L-6.4-81.4z M-8.6-73h36.8c1.7-0.1,3.2-1.3,3.7-3c0.4-1.1-0.1-2.4-1.2-2.8
				c-0.3-0.1-0.6-0.1-1-0.1H-7.1c-1.7,0.1-3.2,1.3-3.7,3c-0.4,1.1,0.1,2.4,1.2,2.8C-9.3-73-9-73-8.6-73z M-10.9-64.5h73.6
				c1.7-0.1,3.2-1.3,3.7-3c0.4-1.1-0.1-2.4-1.2-2.8c-0.3-0.1-0.6-0.2-0.9-0.2H-9.3c-1.7,0.1-3.2,1.3-3.7,3c-0.4,1.1,0.1,2.4,1.2,2.8
				C-11.5-64.5-11.2-64.5-10.9-64.5z M75.3-61.9h-86.9c-1.7,0.1-3.2,1.3-3.7,3c-0.4,1.1,0.1,2.4,1.2,2.8c0.3,0.1,0.6,0.2,0.9,0.2
				h86.9c1.7-0.1,3.2-1.3,3.7-3c0.4-1.1-0.1-2.4-1.2-2.8C75.9-61.8,75.6-61.9,75.3-61.9z M12.3-53.4h-26.2c-1.7,0.1-3.2,1.3-3.7,3
				c-0.4,1.1,0.1,2.4,1.2,2.8c0.3,0.1,0.6,0.2,0.9,0.2h26.2c1.7-0.1,3.2-1.3,3.7-3c0.4-1.1-0.1-2.4-1.2-2.8
				C13-53.3,12.6-53.4,12.3-53.4L12.3-53.4z M0.8-44.9h-17c-1.7,0.1-3.2,1.3-3.7,3c-0.4,1.1,0.1,2.4,1.2,2.8
				c0.3,0.1,0.6,0.2,0.9,0.2h17c1.7-0.1,3.2-1.3,3.7-3c0.5-1.1-0.1-2.4-1.2-2.8C1.4-44.9,1.1-44.9,0.8-44.9L0.8-44.9z M-1.5-36.4
				h-16.9c-1.7,0.1-3.2,1.3-3.7,3c-0.4,1.1,0.1,2.4,1.2,2.8c0.3,0.1,0.6,0.2,0.9,0.2h17c1.7-0.1,3.2-1.3,3.7-3
				c0.4-1.1-0.1-2.4-1.2-2.8C-0.8-36.4-1.2-36.5-1.5-36.4z M46.6-98.5h17c1.7-0.1,3.2-1.3,3.7-3c0.4-1.1-0.1-2.4-1.2-2.8
				c-0.3-0.1-0.6-0.2-0.9-0.2h-17c-1.7,0.1-3.2,1.3-3.7,3c-0.5,1.1,0,2.4,1.1,2.8C45.9-98.4,46.3-98.4,46.6-98.5L46.6-98.5z
				 M44.4-89.9h16.9c1.7-0.1,3.2-1.3,3.7-3c0.4-1.1-0.1-2.4-1.2-2.8c-0.3-0.1-0.6-0.2-0.9-0.2h-17c-1.7,0.1-3.2,1.3-3.7,3
				c-0.4,1.1,0.1,2.4,1.2,2.8C43.7-90,44.1-89.9,44.4-89.9z M42.1-81.5H59c1.7-0.1,3.2-1.3,3.7-3c0.4-1.1-0.1-2.4-1.2-2.8
				c-0.3-0.1-0.6-0.2-0.9-0.2H43.7c-1.7,0.1-3.2,1.3-3.7,3c-0.4,1.1,0.1,2.4,1.2,2.8C41.5-81.5,41.8-81.4,42.1-81.5z M39.8-73h17
				c1.7-0.1,3.2-1.3,3.7-3c0.4-1.1-0.1-2.4-1.2-2.8c-0.3-0.1-0.6-0.1-1-0.1h-17c-1.7,0.1-3.2,1.3-3.7,3c-0.4,1.1,0.1,2.4,1.2,2.8
				C39.2-73,39.5-73,39.8-73z M56.6-53.4h-22c-1.7,0.1-3.2,1.3-3.7,3c-0.4,1.1,0.1,2.4,1.2,2.8c0.3,0.1,0.6,0.2,0.9,0.2h22
				c1.7-0.1,3.2-1.3,3.7-3c0.4-1.1-0.1-2.4-1.2-2.8C57.2-53.3,56.9-53.4,56.6-53.4z M49.3-44.9h-17c-1.7,0.1-3.2,1.3-3.7,3
				c-0.4,1.1,0.1,2.4,1.2,2.8c0.3,0.1,0.6,0.2,0.9,0.2h17c1.7-0.1,3.2-1.3,3.7-3c0.4-1.1-0.1-2.4-1.2-2.8
				C49.9-44.9,49.6-44.9,49.3-44.9z M47-36.4H30c-1.7,0.1-3.2,1.3-3.7,3c-0.4,1.1,0.1,2.4,1.2,2.8c0.3,0.1,0.6,0.2,0.9,0.2h17
				c1.7-0.1,3.2-1.3,3.7-3c0.4-1.1-0.1-2.4-1.2-2.8C47.6-36.4,47.3-36.5,47-36.4z M64.4-73.1c1.7-0.1,3.1-1.2,3.6-2.9
				c0.4-1.1-0.1-2.3-1.2-2.7c-0.3-0.1-0.6-0.1-0.8-0.1c-1.7,0.1-3.1,1.2-3.6,2.9c-0.4,1.1,0.1,2.3,1.2,2.7
				C63.9-73.1,64.1-73.1,64.4-73.1z M70.9-64.6c1.7-0.1,3.1-1.2,3.6-2.9c0.4-1.1-0.2-2.3-1.3-2.7c-0.3-0.1-0.5-0.1-0.8-0.1
				c-1.7,0.1-3.1,1.2-3.6,2.9c-0.4,1.1,0.2,2.3,1.3,2.7C70.4-64.6,70.7-64.6,70.9-64.6z M83.6-70.3c-1.7,0.1-3.1,1.2-3.6,2.9
				c-0.4,1.1,0.1,2.3,1.2,2.7c0.3,0.1,0.6,0.1,0.8,0.1c1.7-0.1,3.1-1.2,3.6-2.9c0.4-1.1-0.1-2.3-1.2-2.7
				C84.2-70.2,83.9-70.3,83.6-70.3z M63.8-53.3c-1.7,0.1-3.1,1.2-3.6,2.9c-0.4,1.1,0.1,2.3,1.2,2.7c0.3,0.1,0.6,0.1,0.8,0.1
				c1.7-0.1,3.1-1.2,3.6-2.9c0.4-1.1-0.1-2.3-1.2-2.7C64.4-53.3,64.1-53.3,63.8-53.3z"/>
		</g>
	</g>
</g>
</svg>
