<?xml version="1.0" encoding="utf-8"?>
<!-- Generator: Adobe Illustrator 24.0.0, SVG Export Plug-In . SVG Version: 6.00 Build 0)  -->
<svg version="1.1" id="图层_1" xmlns="http://www.w3.org/2000/svg" xmlns:xlink="http://www.w3.org/1999/xlink" x="0px" y="0px"
	 viewBox="0 0 531.8 73.9" style="enable-background:new 0 0 531.8 73.9;" xml:space="preserve">
<g transform="translate(22.2774658203125,104.4837646484375)">
	<g transform="translate(0,0)">
		<g>
			<path d="M-4-101.4c0.5-1.7,2-2.9,3.7-3h17c1.2-0.1,2.2,0.8,2.3,2c0,0.3,0,0.6-0.2,0.9c-0.5,1.7-2,2.9-3.7,3h-17
				c-1.2,0.1-2.2-0.8-2.3-2C-4.1-100.8-4.1-101.1-4-101.4z M-4.1-90h16.9c1.7-0.1,3.2-1.3,3.7-3c0.4-1.1-0.1-2.4-1.2-2.8
				c-0.3-0.1-0.6-0.2-0.9-0.2h-17c-1.7,0.1-3.2,1.3-3.7,3c-0.4,1.1,0.1,2.4,1.3,2.8C-4.7-90.1-4.4-90-4.1-90L-4.1-90z M-6.4-81.5
				h16.9c1.7-0.1,3.2-1.3,3.7-3c0.4-1.1-0.1-2.4-1.2-2.8c-0.3-0.1-0.6-0.2-0.9-0.2h-17c-1.7,0.1-3.2,1.3-3.7,3
				c-0.4,1.1,0.1,2.4,1.3,2.8C-7-81.6-6.7-81.5-6.4-81.5L-6.4-81.5z M-8.6-73.1h36.8c1.7-0.1,3.2-1.3,3.7-3c0.4-1.1-0.1-2.4-1.2-2.8
				C30.4-79,30.1-79,29.7-79H-7.1c-1.7,0.1-3.2,1.3-3.7,3c-0.4,1.1,0.1,2.4,1.2,2.8C-9.3-73.1-9-73.1-8.6-73.1z M-10.9-64.6h73.6
				c1.7-0.1,3.2-1.3,3.7-3c0.4-1.1-0.1-2.4-1.2-2.8c-0.3-0.1-0.6-0.2-0.9-0.2H-9.3c-1.7,0.1-3.2,1.3-3.7,3c-0.4,1.1,0.1,2.4,1.2,2.8
				C-11.5-64.6-11.2-64.6-10.9-64.6z M75.3-62h-86.9c-1.7,0.1-3.2,1.3-3.7,3c-0.4,1.1,0.1,2.4,1.2,2.8c0.3,0.1,0.6,0.2,0.9,0.2h86.9
				c1.7-0.1,3.2-1.3,3.7-3c0.4-1.1-0.1-2.4-1.2-2.8C75.9-61.9,75.6-62,75.3-62z M12.3-53.5h-26.2c-1.7,0.1-3.2,1.3-3.7,3
				c-0.4,1.1,0.1,2.4,1.2,2.8c0.3,0.1,0.6,0.2,0.9,0.2h26.2c1.7-0.1,3.2-1.3,3.7-3c0.4-1.1-0.1-2.4-1.2-2.8
				C13-53.4,12.6-53.5,12.3-53.5L12.3-53.5z M0.8-45h-17c-1.7,0.1-3.2,1.3-3.7,3c-0.4,1.1,0.1,2.4,1.2,2.8c0.3,0.1,0.6,0.2,0.9,0.2
				h17c1.7-0.1,3.2-1.3,3.7-3c0.5-1.1-0.1-2.4-1.2-2.8C1.4-45,1.1-45,0.8-45L0.8-45z M-1.5-36.5h-16.9c-1.7,0.1-3.2,1.3-3.7,3
				c-0.4,1.1,0.1,2.4,1.2,2.8c0.3,0.1,0.6,0.2,0.9,0.2h17c1.7-0.1,3.2-1.3,3.7-3c0.4-1.1-0.1-2.4-1.2-2.8
				C-0.8-36.5-1.2-36.6-1.5-36.5z M46.6-98.6h17c1.7-0.1,3.2-1.3,3.7-3c0.4-1.1-0.1-2.4-1.2-2.8c-0.3-0.1-0.6-0.2-0.9-0.2h-17
				c-1.7,0.1-3.2,1.3-3.7,3c-0.5,1.1,0,2.4,1.1,2.8C45.9-98.5,46.3-98.5,46.6-98.6L46.6-98.6z M44.4-90h16.9c1.7-0.1,3.2-1.3,3.7-3
				c0.4-1.1-0.1-2.4-1.2-2.8c-0.3-0.1-0.6-0.2-0.9-0.2h-17c-1.7,0.1-3.2,1.3-3.7,3c-0.4,1.1,0.1,2.4,1.2,2.8
				C43.7-90.1,44.1-90,44.4-90z M42.1-81.6H59c1.7-0.1,3.2-1.3,3.7-3c0.4-1.1-0.1-2.4-1.2-2.8c-0.3-0.1-0.6-0.2-0.9-0.2H43.7
				c-1.7,0.1-3.2,1.3-3.7,3c-0.4,1.1,0.1,2.4,1.2,2.8C41.5-81.6,41.8-81.5,42.1-81.6z M39.8-73.1h17c1.7-0.1,3.2-1.3,3.7-3
				c0.4-1.1-0.1-2.4-1.2-2.8C59-79,58.7-79,58.3-79h-17c-1.7,0.1-3.2,1.3-3.7,3c-0.4,1.1,0.1,2.4,1.2,2.8
				C39.2-73.1,39.5-73.1,39.8-73.1z M56.6-53.5h-22c-1.7,0.1-3.2,1.3-3.7,3c-0.4,1.1,0.1,2.4,1.2,2.8c0.3,0.1,0.6,0.2,0.9,0.2h22
				c1.7-0.1,3.2-1.3,3.7-3c0.4-1.1-0.1-2.4-1.2-2.8C57.2-53.4,56.9-53.5,56.6-53.5z M49.3-45h-17c-1.7,0.1-3.2,1.3-3.7,3
				c-0.4,1.1,0.1,2.4,1.2,2.8c0.3,0.1,0.6,0.2,0.9,0.2h17c1.7-0.1,3.2-1.3,3.7-3c0.4-1.1-0.1-2.4-1.2-2.8C49.9-45,49.6-45,49.3-45z
				 M47-36.5H30c-1.7,0.1-3.2,1.3-3.7,3c-0.4,1.1,0.1,2.4,1.2,2.8c0.3,0.1,0.6,0.2,0.9,0.2h17c1.7-0.1,3.2-1.3,3.7-3
				c0.4-1.1-0.1-2.4-1.2-2.8C47.6-36.5,47.3-36.6,47-36.5z M64.4-73.2c1.7-0.1,3.1-1.2,3.6-2.9c0.4-1.1-0.1-2.3-1.2-2.7
				c-0.3-0.1-0.6-0.1-0.8-0.1c-1.7,0.1-3.1,1.2-3.6,2.9c-0.4,1.1,0.1,2.3,1.2,2.7C63.9-73.2,64.1-73.2,64.4-73.2z M70.9-64.7
				c1.7-0.1,3.1-1.2,3.6-2.9c0.4-1.1-0.2-2.3-1.3-2.7c-0.3-0.1-0.5-0.1-0.8-0.1c-1.7,0.1-3.1,1.2-3.6,2.9c-0.4,1.1,0.2,2.3,1.3,2.7
				C70.4-64.7,70.7-64.7,70.9-64.7z M83.6-70.4c-1.7,0.1-3.1,1.2-3.6,2.9c-0.4,1.1,0.1,2.3,1.2,2.7c0.3,0.1,0.6,0.1,0.8,0.1
				c1.7-0.1,3.1-1.2,3.6-2.9c0.4-1.1-0.1-2.3-1.2-2.7C84.2-70.3,83.9-70.4,83.6-70.4z M63.8-53.4c-1.7,0.1-3.1,1.2-3.6,2.9
				c-0.4,1.1,0.1,2.3,1.2,2.7c0.3,0.1,0.6,0.1,0.8,0.1c1.7-0.1,3.1-1.2,3.6-2.9c0.4-1.1-0.1-2.3-1.2-2.7
				C64.4-53.4,64.1-53.4,63.8-53.4z"/>
		</g>
	</g>
	<g transform="translate(67.04548263549805,1.7632694244384766)">
		<g>
			<g>
				<path d="M103.2-67.7L103.2-67.7c-9.8-0.5-18.8-0.3-26.9,0.8l0,0c0,2.7,0.5,4.6,1.6,5.7l0,0c8.1-0.5,15.8-0.5,22.8,0
					l0,0C103.5-61.2,104.3-63.3,103.2-67.7z M101.6-77.5L101.6-77.5C88-78,80.1-78,77.9-77.5l0,0c-1.6,1.6-2.2,3.5-1.6,5.7l0,0
					c17.4,0,26.4-0.5,26.9-1.6l0,0C104.3-75.6,103.7-76.9,101.6-77.5z M40.4-87.3L40.4-87.3c1.1,1.6,1.4,3.8,0.8,6.5l0,0
					c-1.1,4.4-2.7,9-4.9,13.9l0,0c-1.1,3.3-2.2,4.6-3.3,4.1c-1.1-0.5-1.6-3-1.6-7.3l0,0c0.5-4.9,1.1-9.2,1.6-13.1l0,0
					c0.5-2.2,1.4-3.8,2.4-4.9l0,0C37.7-89.2,39.3-88.9,40.4-87.3z M54.3-97.9V-40c-1.6,2.7-3.8,4.1-6.5,4.1l0,0
					c-2.2,0-3.3-1.4-3.3-4.1l0,0c0-4.3,0.3-9,0.8-13.9l0,0v-27.7c0-8.2-0.3-13.6-0.8-16.3l0,0c0.5-2.2,1.9-3.3,4.1-3.3l0,0
					C52.9-101.1,54.8-100,54.3-97.9L54.3-97.9z M64-85.6L64-85.6c-0.5,2.7-1.4,5.2-2.4,7.3l0,0c-1.1,1.1-1.9,1.6-2.4,1.6l0,0
					c-1.1-0.5-1.4-4.6-0.8-12.2l0,0c0-1.1,0.3-1.9,0.8-2.4l0,0c1.1-1.6,2.4-1.6,4.1,0l0,0C63.8-89.7,64-87.8,64-85.6z M114.6-94.6
					L114.6-94.6c2.2,1.6,2.2,3,0,4.1l0,0c-4.9,1.1-10.1,1.6-15.5,1.6l0,0H77.9c-3.3,0.6-6,1.1-8.2,1.6c-2.2,0.5-3.3,0-3.3-1.6
					c0-1.6,0.8-3.3,2.4-4.9l0,0c1.6-1.1,3-1.6,4.1-1.6l0,0c1.6,0.5,3,0.8,4.1,0.8l0,0c3.3,0,8.7-0.3,16.3-0.8l0,0
					C99.9-95.4,107-95.1,114.6-94.6z M112.2-69.3L112.2-69.3c-0.5,4.3-0.8,8.4-0.8,12.2l0,0c-0.6,2.7-1.9,3.8-4.1,3.3l0,0
					c-1.6,0-4.4-0.8-8.2-2.4l0,0c-4.9-0.5-11.4-0.5-19.6,0l0,0c-1.6,1.1-3.5,1.9-5.7,2.4l0,0c-1.6,0.5-3-0.3-4.1-2.4l0,0
					c-0.6-6.5-1.4-13.1-2.4-19.6l0,0c0-2.7,0.5-5.2,1.6-7.3l0,0c1.1-1.1,2.7-1.6,4.9-1.6l0,0c2.2,1.1,4.6,1.6,7.3,1.6l0,0h21.2
					c2.2-0.6,3.8-1.1,4.9-1.6l0,0c1.1,0,2.2,0.3,3.3,0.8l0,0c1.6,1.6,2.4,3.5,2.4,5.7l0,0C112.4-75,112.2-72,112.2-69.3z
					 M126.8-50.6L126.8-50.6c-5.4,9.8-10.1,13.6-13.9,11.4l0,0c-3.3-1.1-6.5-2.2-9.8-3.3l0,0c-3.8-1.1-7.6-1.6-11.4-1.6l0,0
					c-6,0-12.8,0.5-20.4,1.6l0,0c-3.3,0.5-6.5,1.4-9.8,2.4l0,0c-2.2,0-3.3-0.8-3.3-2.4s0.8-3.5,2.4-5.7l0,0c1.1-1.1,2.5-1.9,4.1-2.4
					l0,0c1.6,0.5,3.5,0.8,5.7,0.8l0,0c8.2-0.5,15.8-0.8,22.8-0.8l0,0C111.3-49.5,122.5-49.5,126.8-50.6z M175.8-100.3L175.8-100.3
					c0.6-2.2,2.2-3,4.9-2.4l0,0c3.3,0,5.7,1.6,7.3,4.9l0,0c-0.5,3.3-0.8,5.4-0.8,6.5l0,0c9.8,0,16,0.3,18.8,0.8l0,0c3.3,0,6.3,0,9,0
					l0,0c2.7,0.5,4.1,1.6,4.1,3.3l0,0c-0.6,2.7-2.5,3.8-5.7,3.3l0,0c-8.2-0.5-16.9-0.8-26.1-0.8l0,0c-1.1,2.2-1.4,4.6-0.8,7.3l0,0
					c6.5,0,13.3,0.3,20.4,0.8l0,0c3.3,0,5.2,0.8,5.7,2.4l0,0c1.1,2.2,0,3.3-3.3,3.3l0,0c-10.9-1.1-22-1.3-33.4-0.8l0,0
					c-4.3,0-8.7,0.3-13,0.8l0,0c-2.2,0.6-4.6,1.1-7.3,1.6l0,0c-3.3,0.5-4.6-0.5-4.1-3.3l0,0c2.7-3.8,5.2-5.4,7.3-4.9l0,0
					c4.3,0.5,10.3,0.5,17.9,0l0,0c0.5-2.2,0.5-4.6,0-7.3l0,0c-7.1,0-14.2,0.5-21.2,1.6l0,0c-3.3,0.5-6.5,1.3-9.8,2.4l0,0
					c-3.3,0-4.1-1.6-2.4-4.9l0,0c2.7-3.8,5.7-5.4,9-4.9l0,0c7.6,0,15.8-0.3,24.5-0.8l0,0C176.6-94.1,176.3-97,175.8-100.3z
					 M199.4-66.9L199.4-66.9c2.2,0.5,4.1,1.6,5.7,3.3l0,0c1.1,1.6,0.6,3-1.6,4.1l0,0c-3.8,2.2-7.9,4.9-12.2,8.2l0,0
					c5.4,1.1,10.3,1.9,14.7,2.4l0,0c8.1,0.5,16.3,0,24.5-1.6l0,0c1.6,0.5,2.2,1.4,1.6,2.4l0,0c-5.4,6-11.4,10.1-17.9,12.2l0,0
					c-3.8,1.1-8.2,0.3-13.1-2.4l0,0c-3.8-2.2-7.6-4.1-11.4-5.7l0,0c-5.4-3.3-10.9-6.3-16.3-9l0,0c-7.1-2.7-12-4.1-14.7-4.1l0,0
					c-2.7,1.1-4.1,0.3-4.1-2.4l0,0c0-2.2,0.5-4.4,1.6-6.5l0,0c1.6-2.2,3.3-2.4,4.9-0.8l0,0c1.1,1.6,3.5,3.5,7.3,5.7l0,0
					c3.8,1.6,8.2,3.5,13.1,5.7l0,0c2.2,0.5,4.4,1.4,6.5,2.4l0,0c2.7-4.3,4.9-7.9,6.5-10.6l0,0C196.2-65.8,197.8-66.9,199.4-66.9z
					 M181.5-67.7L181.5-67.7c1.1-1.6,2.5-2.4,4.1-2.4l0,0c3.8,2.2,4.9,4.3,3.3,6.5l0,0c-2.2,1.6-4.6,3.3-7.3,4.9l0,0
					c-2.2,0.5-3-0.5-2.4-3.3l0,0C179.6-64.2,180.4-66.1,181.5-67.7z M144-64.4L144-64.4c2.2-1.1,3.3,0.5,3.3,4.9l0,0
					c-0.5,10.3-3,16.6-7.3,18.8l0,0c-3.3,1.1-5.4,0.3-6.5-2.4l0,0c-1.1-1.6-1.1-3,0-4.1l0,0C138.8-52.7,142.3-58.4,144-64.4z
					 M276.9-73.4L276.9-73.4c1.6-4.3,3-8.4,4.1-12.2l0,0c0.5-1.1,1.6-1.6,3.3-1.6l0,0c2.7,1.6,3.5,3.8,2.4,6.5l0,0
					c-1.1,3.8-2.7,7.6-4.9,11.4l0,0c2.2,2.7,4.6,5.2,7.3,7.3l0,0c0.5,2.2-0.6,3.3-3.3,3.3l0,0c-2.7-1.6-5.2-3.5-7.3-5.7l0,0
					c-7.1,9.8-12.2,15.8-15.5,17.9l0,0c-3.3,0.5-4.9-0.3-4.9-2.4l0,0c3.3-2.7,6.5-6.3,9.8-10.6l0,0c2.2-2.7,4.1-5.7,5.7-9l0,0
					c-3.8-3.8-6.5-7.1-8.2-9.8l0,0c-0.6-1.6-0.3-3,0.8-4.1c1.1-1.1,2.4-0.8,4.1,0.8l0,0C270.9-80.5,273.1-77.7,276.9-73.4z
					 M279.4-95.4H303c1.6,0,3.5,0.3,5.7,0.8l0,0c2.7,0.5,5.7-0.3,9-2.4l0,0c1.6-0.5,3,0,4.1,1.6l0,0c3.3,2.7,4.6,4.9,4.1,6.5l0,0
					c-0.6,1.1-0.8,2.5-0.8,4.1l0,0v17.1c0.6,10.9,1.1,19.3,1.6,25.3l0,0c0,1.6-1.9,3.3-5.7,4.9l0,0c-3.3,0.5-4.9-0.3-4.9-2.4l0,0
					c0-31.5-0.5-47.6-1.6-48.1l0,0c-2.7-1.1-5.4-1.6-8.2-1.6l0,0h-43.2c-1.6,0.5-2.7,1.4-3.3,2.4l0,0c0.6,2.7,0.8,6.5,0.8,11.4l0,0
					c0,8.7-0.8,16.6-2.4,23.7l0,0c-1.1,2.7-3,5.7-5.7,9c-2.7,3.3-6.8,4.1-12.2,2.4l0,0c-1.6-1.1-2.4-2.2-2.4-3.3l0,0
					c0.5-1.1,1.6-2.2,3.3-3.3l0,0c2.7-2.2,5.2-4.3,7.3-6.5l0,0c2.2-3.8,3.5-7.6,4.1-11.4l0,0v-15.5c-0.6-5.4-1.4-9.5-2.4-12.2l0,0
					c0.5-2.7,1.9-4.4,4.1-4.9l0,0c2.2,1.1,4.6,2.2,7.3,3.3l0,0C267.4-95.1,273.4-95.4,279.4-95.4L279.4-95.4z M303.8-85.6
					L303.8-85.6c0-1.1,1.1-1.6,3.3-1.6l0,0c1.1,1.1,2.2,2.5,3.3,4.1l0,0c0,0.5-0.3,1.6-0.8,3.3l0,0c-1.6,3.3-3.5,7.1-5.7,11.4l0,0
					c2.2,2.7,5.4,6.8,9.8,12.2l0,0c1.1,1.6,1.4,3,0.8,4.1l0,0c-1.1,1.1-2.4,1.1-4.1,0l0,0c-2.7-2.2-6-6-9.8-11.4l0,0
					c-2.2,3.3-5.2,7.1-9,11.4l0,0c-4.4,3.8-7.4,5.4-9,4.9l0,0c-2.2-0.5-2.7-1.4-1.6-2.4l0,0c4.9-3.8,10-9.8,15.5-17.9l0,0
					c-2.7-3.8-4.6-6.8-5.7-9c-1.1-2.2-0.8-3.8,0.8-4.9l0,0c1.1-0.5,2.2-0.5,3.3,0l0,0c1.1,2.2,2.7,4.9,4.9,8.2l0,0
					C301.9-78.8,303.3-82.9,303.8-85.6z M399.3-98.7L399.3-98.7c2.2-3.3,4.6-3.8,7.3-1.6l0,0c2.2,2.2,1.9,4.3-0.8,6.5l0,0
					c3.8,1.6,7.9,2.2,12.2,1.6l0,0c2.2-1.1,4.1-0.5,5.7,1.6l0,0c1.1,1.6,1.4,3.3,0.8,4.9l0,0c-2.2,4.3-5.7,7.9-10.6,10.6l0,0
					c10.3,4.9,19.8,7.9,28.5,9l0,0c-5.4,9.2-10.9,11.7-16.3,7.3l0,0c-4.3-3.8-10-7.9-17.1-12.2l0,0c-6,2.7-11.7,4.9-17.1,6.5l0,0
					c-2.2,0.5-4.3,0.8-6.5,0.8l0,0c-2.7,0-4.6-1.4-5.7-4.1l0,0c8.2-1.1,15.8-3.3,22.8-6.5l0,0c-4.3-3.8-7.9-6.5-10.6-8.2l0,0
					c-2.2,1.1-4.9,2.2-8.2,3.3l0,0c-1.6,0-2.4-0.8-2.4-2.4l0,0C387.8-85.4,393.8-91.1,399.3-98.7z M369.9-97.1L369.9-97.1
					c1.6-2.2,3.5-3,5.7-2.4l0,0c3.3,2.7,3.8,5.2,1.6,7.3l0,0c-7.1,4.4-13.3,8.7-18.8,13l0,0c-1.6,2.2,1.4,3,9,2.4l0,0
					c2.2-1.6,4.3-3.5,6.5-5.7l0,0c1.6-1.1,3.5-1.1,5.7,0l0,0c1.6,3.3,0,6.3-4.9,9l0,0c-3.8,2.2-7.6,4.4-11.4,6.5l0,0
					c-2.2,2.2-2.2,3,0,2.4l0,0c8.7-2.2,13.3-2.7,13.9-1.6c0.6,1.1-1.6,2.7-6.5,4.9l0,0c-4.4,2.2-9,3.8-13.9,4.9l0,0
					c-2.7,0.5-4.6,0-5.7-1.6l0,0c-1.6-2.2-0.5-4.9,3.3-8.2l0,0c2.7-2.2,5.7-4.1,9-5.7l0,0c-3.8-1.1-7.6-0.8-11.4,0.8l0,0
					c-3.3,1.1-5.4,0-6.5-3.3l0,0c0-2.7,1.4-4.9,4.1-6.5l0,0c3.3-0.5,8.2-3.8,14.7-9.8l0,0C366.4-92.7,368.3-94.9,369.9-97.1z
					 M353.6-50.6L353.6-50.6c9.8-1.1,19.3-3.3,28.5-6.5l0,0c1.6-0.6,2.4,0.3,2.4,2.4l0,0c-2.7,2.2-8.7,5.2-17.9,9l0,0
					c-4.3,1.6-9.5,3.3-15.5,4.9l0,0c-3.3,1.1-5.4,0-6.5-3.3l0,0C344.6-47.8,347.6-50,353.6-50.6z M391.9-62.8L391.9-62.8
					c8.2,1.6,16.3,1.6,24.5,0l0,0c3.8,0,6.3,1.6,7.3,4.9l0,0c-1.1,4.9-1.9,10.3-2.4,16.3l0,0c0,3.3-1.9,4.4-5.7,3.3l0,0
					c-7.6-2.2-14.9-2.2-22,0l0,0c-2.2,1.1-3.8,0.3-4.9-2.4l0,0c0-6.5-0.5-12.5-1.6-17.9l0,0C387-60.9,388.7-62.2,391.9-62.8z
					 M397.6-56.3L397.6-56.3c-3.3,0.5-4.1,4.1-2.4,10.6l0,0c5.4,1.1,11.4,1.1,17.9,0l0,0c2.7-1.6,3-5.2,0.8-10.6l0,0
					C408-57.4,402.5-57.4,397.6-56.3z M400.9-88.9l-3.3,3.3c3.3,3.3,6.5,5.7,9.8,7.3l0,0c2.7-1.1,5.2-2.7,7.3-4.9l0,0
					c1.6-2.2,1.4-3.5-0.8-4.1l0,0C409-87.8,404.7-88.3,400.9-88.9L400.9-88.9z"/>
			</g>
			<g transform="translate(231.3699951171875,0)">
			</g>
		</g>
	</g>
</g>
</svg>
