<?xml version="1.0" encoding="utf-8"?>
<!-- Generator: Adobe Illustrator 24.0.0, SVG Export Plug-In . SVG Version: 6.00 Build 0)  -->
<svg version="1.1" id="图层_1" xmlns="http://www.w3.org/2000/svg" xmlns:xlink="http://www.w3.org/1999/xlink" x="0px" y="0px"
	 viewBox="0 0 612 792" xml:space="preserve">
<style type="text/css">
	.st1{fill-rule:evenodd;clip-rule:evenodd;fill:#4DC9FF;}
	.st2{fill-rule:evenodd;clip-rule:evenodd;fill:#4DC9FF;}
</style>
<g transform="translate(52.78919982910156,104.4837646484375)">
	<g transform="translate(0,0)">
		<g>
			<path class="st1" d="M60.5,257.5c0.5-1.7,2-2.9,3.7-3h17c1.2-0.1,2.2,0.8,2.3,2c0,0.3,0,0.6-0.2,0.9c-0.5,1.7-2,2.9-3.7,3h-17
				c-1.2,0.1-2.2-0.8-2.3-2C60.3,258.2,60.4,257.8,60.5,257.5z M60.4,268.9h16.9c1.7-0.1,3.2-1.3,3.7-3c0.4-1.1-0.1-2.4-1.2-2.8
				c-0.3-0.1-0.6-0.2-0.9-0.2h-17c-1.7,0.1-3.2,1.3-3.7,3c-0.4,1.1,0.1,2.4,1.3,2.8C59.8,268.9,60.1,268.9,60.4,268.9L60.4,268.9z
				 M58.1,277.4H75c1.7-0.1,3.2-1.3,3.7-3c0.4-1.1-0.1-2.4-1.2-2.8c-0.3-0.1-0.6-0.2-0.9-0.2h-17c-1.7,0.1-3.2,1.3-3.7,3
				c-0.4,1.1,0.1,2.4,1.3,2.8C57.5,277.3,57.8,277.4,58.1,277.4L58.1,277.4z M55.8,285.8h36.8c1.7-0.1,3.2-1.3,3.7-3
				c0.4-1.1-0.1-2.4-1.2-2.8c-0.3-0.1-0.6-0.2-0.9-0.2H57.4c-1.7,0.1-3.2,1.3-3.7,3c-0.4,1.1,0.1,2.4,1.2,2.8
				C55.2,285.8,55.5,285.9,55.8,285.8z M53.5,294.3h73.6c1.7-0.1,3.2-1.3,3.7-3c0.4-1.1-0.1-2.4-1.2-2.8c-0.3-0.1-0.6-0.2-0.9-0.2
				H55.1c-1.7,0.1-3.2,1.3-3.7,3c-0.4,1.1,0.1,2.4,1.2,2.8C52.9,294.3,53.2,294.3,53.5,294.3z M139.7,297H52.8
				c-1.7,0.1-3.2,1.3-3.7,3c-0.4,1.1,0.1,2.4,1.2,2.8c0.3,0.1,0.6,0.2,0.9,0.2h86.9c1.7-0.1,3.2-1.3,3.7-3c0.4-1.1-0.1-2.4-1.2-2.8
				C140.3,297,140,296.9,139.7,297z M76.8,305.4H50.6c-1.7,0.1-3.2,1.3-3.7,3c-0.4,1.1,0.1,2.4,1.2,2.8c0.3,0.1,0.6,0.2,0.9,0.2
				h26.2c1.7-0.1,3.2-1.3,3.7-3c0.4-1.1-0.1-2.4-1.2-2.8C77.4,305.5,77.1,305.4,76.8,305.4L76.8,305.4z M65.3,313.9h-17
				c-1.7,0.1-3.2,1.3-3.7,3c-0.4,1.1,0.1,2.4,1.2,2.8c0.3,0.1,0.6,0.2,0.9,0.2h17c1.7-0.1,3.2-1.3,3.7-3c0.5-1.1-0.1-2.4-1.2-2.8
				C65.9,313.9,65.6,313.9,65.3,313.9L65.3,313.9z M62.9,322.4H46c-1.7,0.1-3.2,1.3-3.7,3c-0.4,1.1,0.1,2.4,1.2,2.8
				c0.3,0.1,0.6,0.2,0.9,0.2h17c1.7-0.1,3.2-1.3,3.7-3c0.4-1.1-0.1-2.4-1.2-2.8C63.6,322.4,63.3,322.3,62.9,322.4z M111,260.3h17
				c1.7-0.1,3.2-1.3,3.7-3c0.4-1.1-0.1-2.4-1.2-2.8c-0.3-0.1-0.6-0.2-0.9-0.2h-17c-1.7,0.1-3.2,1.3-3.7,3c-0.5,1.1,0,2.4,1.1,2.8
				C110.4,260.4,110.7,260.4,111,260.3L111,260.3z M108.8,268.9h16.9c1.7-0.1,3.2-1.3,3.7-3c0.4-1.1-0.1-2.4-1.2-2.8
				c-0.3-0.1-0.6-0.2-0.9-0.2h-17c-1.7,0.1-3.2,1.3-3.7,3c-0.4,1.1,0.1,2.4,1.2,2.8C108.2,268.9,108.5,268.9,108.8,268.9z
				 M106.6,277.4h16.9c1.7-0.1,3.2-1.3,3.7-3c0.4-1.1-0.1-2.4-1.2-2.8c-0.3-0.1-0.6-0.2-0.9-0.2h-16.9c-1.7,0.1-3.2,1.3-3.7,3
				c-0.4,1.1,0.1,2.4,1.2,2.8C105.9,277.3,106.2,277.4,106.6,277.4z M104.3,285.8h17c1.7-0.1,3.2-1.3,3.7-3c0.4-1.1-0.1-2.4-1.2-2.8
				c-0.3-0.1-0.6-0.2-0.9-0.2h-17c-1.7,0.1-3.2,1.3-3.7,3c-0.4,1.1,0.1,2.4,1.2,2.8C103.6,285.8,104,285.9,104.3,285.8z M121,305.4
				H99c-1.7,0.1-3.2,1.3-3.7,3c-0.4,1.1,0.1,2.4,1.2,2.8c0.3,0.1,0.6,0.2,0.9,0.2h22c1.7-0.1,3.2-1.3,3.7-3c0.4-1.1-0.1-2.4-1.2-2.8
				C121.6,305.5,121.3,305.4,121,305.4z M113.7,313.9h-17c-1.7,0.1-3.2,1.3-3.7,3c-0.4,1.1,0.1,2.4,1.2,2.8c0.3,0.1,0.6,0.2,0.9,0.2
				h17c1.7-0.1,3.2-1.3,3.7-3c0.4-1.1-0.1-2.4-1.2-2.8C114.4,313.9,114,313.9,113.7,313.9z M111.4,322.4h-17c-1.7,0.1-3.2,1.3-3.7,3
				c-0.4,1.1,0.1,2.4,1.2,2.8c0.3,0.1,0.6,0.2,0.9,0.2h17c1.7-0.1,3.2-1.3,3.7-3c0.4-1.1-0.1-2.4-1.2-2.8
				C112.1,322.4,111.8,322.4,111.4,322.4z M128.9,285.7c1.7-0.1,3.1-1.2,3.6-2.9c0.4-1.1-0.1-2.3-1.2-2.7c-0.3-0.1-0.6-0.1-0.8-0.1
				c-1.7,0.1-3.1,1.2-3.6,2.9c-0.4,1.1,0.1,2.3,1.2,2.7C128.3,285.7,128.6,285.7,128.9,285.7z M135.4,294.2c1.7-0.1,3.1-1.2,3.6-2.9
				c0.4-1.1-0.2-2.3-1.3-2.7c-0.3-0.1-0.5-0.1-0.8-0.1c-1.7,0.1-3.1,1.2-3.6,2.9c-0.4,1.1,0.2,2.3,1.3,2.7
				C134.8,294.2,135.1,294.3,135.4,294.2z M148,288.6c-1.7,0.1-3.1,1.2-3.6,2.9c-0.4,1.1,0.1,2.3,1.2,2.7c0.3,0.1,0.6,0.1,0.8,0.1
				c1.7-0.1,3.1-1.2,3.6-2.9c0.4-1.1-0.1-2.3-1.2-2.7C148.6,288.6,148.3,288.5,148,288.6z M128.3,305.5c-1.7,0.1-3.1,1.2-3.6,2.9
				c-0.4,1.1,0.1,2.3,1.2,2.7c0.3,0.1,0.6,0.1,0.8,0.1c1.7-0.1,3.1-1.2,3.6-2.9c0.4-1.1-0.1-2.3-1.2-2.7
				C128.9,305.5,128.6,305.5,128.3,305.5z"/>
		</g>
	</g>
	<g transform="translate(67.04548263549805,6.774554252624512)">
		<g>
			<g>
				<path class="st2" d="M148.5,285.8L148.5,285.8c-7.2-0.4-13.8-0.2-19.7,0.6l0,0c0,2,0.4,3.4,1.2,4.2l0,0c6-0.4,11.5-0.4,16.7,0
					l0,0C148.7,290.6,149.3,289,148.5,285.8z M147.3,278.6L147.3,278.6c-10-0.4-15.7-0.4-17.3,0l0,0c-1.2,1.2-1.6,2.6-1.2,4.2l0,0
					c12.8,0,19.3-0.4,19.7-1.2l0,0C149.3,280,148.9,279.1,147.3,278.6z M102.4,271.5L102.4,271.5c0.8,1.2,1,2.8,0.6,4.8l0,0
					c-0.8,3.2-2,6.6-3.6,10.2l0,0c-0.8,2.4-1.6,3.4-2.4,3s-1.2-2.2-1.2-5.4l0,0c0.4-3.6,0.8-6.8,1.2-9.6l0,0c0.4-1.6,1-2.8,1.8-3.6
					l0,0C100.4,270.1,101.6,270.3,102.4,271.5z M112.6,263.7v42.4c-1.2,2-2.8,3-4.8,3l0,0c-1.6,0-2.4-1-2.4-3l0,0
					c0-3.2,0.2-6.6,0.6-10.2l0,0v-20.3c0-6-0.2-10-0.6-12l0,0c0.4-1.6,1.4-2.4,3-2.4l0,0C111.6,261.3,113,262.1,112.6,263.7
					L112.6,263.7z M119.8,272.7L119.8,272.7c-0.4,2-1,3.8-1.8,5.4l0,0c-0.8,0.8-1.4,1.2-1.8,1.2l0,0c-0.8-0.4-1-3.4-0.6-9l0,0
					c0-0.8,0.2-1.4,0.6-1.8l0,0c0.8-1.2,1.8-1.2,3,0l0,0C119.6,269.7,119.8,271.1,119.8,272.7z M156.8,266.1L156.8,266.1
					c1.6,1.2,1.6,2.2,0,3l0,0c-3.6,0.8-7.4,1.2-11.4,1.2l0,0h-15.5c-2.4,0.4-4.4,0.8-6,1.2c-1.6,0.4-2.4,0-2.4-1.2s0.6-2.4,1.8-3.6
					l0,0c1.2-0.8,2.2-1.2,3-1.2l0,0c1.2,0.4,2.2,0.6,3,0.6l0,0c2.4,0,6.4-0.2,12-0.6l0,0C146.1,265.5,151.2,265.7,156.8,266.1z
					 M155,284.6L155,284.6c-0.4,3.2-0.6,6.2-0.6,9l0,0c-0.4,2-1.4,2.8-3,2.4l0,0c-1.2,0-3.2-0.6-6-1.8l0,0c-3.6-0.4-8.4-0.4-14.3,0
					l0,0c-1.2,0.8-2.6,1.4-4.2,1.8l0,0c-1.2,0.4-2.2-0.2-3-1.8l0,0c-0.4-4.8-1-9.6-1.8-14.3l0,0c0-2,0.4-3.8,1.2-5.4l0,0
					c0.8-0.8,2-1.2,3.6-1.2l0,0c1.6,0.8,3.4,1.2,5.4,1.2l0,0h15.5c1.6-0.4,2.8-0.8,3.6-1.2l0,0c0.8,0,1.6,0.2,2.4,0.6l0,0
					c1.2,1.2,1.8,2.6,1.8,4.2l0,0C155.2,280.4,155,282.6,155,284.6z M165.8,298.4L165.8,298.4c-4,7.2-7.4,10-10.2,8.4l0,0
					c-2.4-0.8-4.8-1.6-7.2-2.4l0,0c-2.8-0.8-5.6-1.2-8.4-1.2l0,0c-4.4,0-9.4,0.4-14.9,1.2l0,0c-2.4,0.4-4.8,1-7.2,1.8l0,0
					c-1.6,0-2.4-0.6-2.4-1.8c0-1.2,0.6-2.6,1.8-4.2l0,0c0.8-0.8,1.8-1.4,3-1.8l0,0c1.2,0.4,2.6,0.6,4.2,0.6l0,0
					c6-0.4,11.6-0.6,16.7-0.6l0,0C154.4,299.2,162.6,299.2,165.8,298.4z M201.6,261.9L201.6,261.9c0.4-1.6,1.6-2.2,3.6-1.8l0,0
					c2.4,0,4.2,1.2,5.4,3.6l0,0c-0.4,2.4-0.6,4-0.6,4.8l0,0c7.2,0,11.8,0.2,13.8,0.6l0,0c2.4,0,4.6,0,6.6,0l0,0c2,0.4,3,1.2,3,2.4
					l0,0c-0.4,2-1.8,2.8-4.2,2.4l0,0c-6-0.4-12.4-0.6-19.1-0.6l0,0c-0.8,1.6-1,3.4-0.6,5.4l0,0c4.8,0,9.8,0.2,14.9,0.6l0,0
					c2.4,0,3.8,0.6,4.2,1.8l0,0c0.8,1.6,0,2.4-2.4,2.4l0,0c-8-0.8-16.2-1-24.5-0.6l0,0c-3.2,0-6.4,0.2-9.6,0.6l0,0
					c-1.6,0.4-3.4,0.8-5.4,1.2l0,0c-2.4,0.4-3.4-0.4-3-2.4l0,0c2-2.8,3.8-4,5.4-3.6l0,0c3.2,0.4,7.6,0.4,13.1,0l0,0
					c0.4-1.6,0.4-3.4,0-5.4l0,0c-5.2,0-10.4,0.4-15.5,1.2l0,0c-2.4,0.4-4.8,1-7.2,1.8l0,0c-2.4,0-3-1.2-1.8-3.6l0,0
					c2-2.8,4.2-4,6.6-3.6l0,0c5.6,0,11.6-0.2,17.9-0.6l0,0C202.2,266.5,202,264.3,201.6,261.9z M219,286.4L219,286.4
					c1.6,0.4,3,1.2,4.2,2.4l0,0c0.8,1.2,0.4,2.2-1.2,3l0,0c-2.8,1.6-5.8,3.6-9,6l0,0c4,0.8,7.6,1.4,10.8,1.8l0,0
					c6,0.4,12,0,17.9-1.2l0,0c1.2,0.4,1.6,1,1.2,1.8l0,0c-4,4.4-8.4,7.4-13.1,9l0,0c-2.8,0.8-6,0.2-9.6-1.8l0,0
					c-2.8-1.6-5.6-3-8.4-4.2l0,0c-4-2.4-8-4.6-12-6.6l0,0c-5.2-2-8.8-3-10.8-3l0,0c-2,0.8-3,0.2-3-1.8l0,0c0-1.6,0.4-3.2,1.2-4.8
					l0,0c1.2-1.6,2.4-1.8,3.6-0.6l0,0c0.8,1.2,2.6,2.6,5.4,4.2l0,0c2.8,1.2,6,2.6,9.6,4.2l0,0c1.6,0.4,3.2,1,4.8,1.8l0,0
					c2-3.2,3.6-5.8,4.8-7.8l0,0C216.6,287.2,217.8,286.4,219,286.4z M205.8,285.8L205.8,285.8c0.8-1.2,1.8-1.8,3-1.8l0,0
					c2.8,1.6,3.6,3.2,2.4,4.8l0,0c-1.6,1.2-3.4,2.4-5.4,3.6l0,0c-1.6,0.4-2.2-0.4-1.8-2.4l0,0C204.4,288.4,205,287,205.8,285.8z
					 M178.3,288.2L178.3,288.2c1.6-0.8,2.4,0.4,2.4,3.6l0,0c-0.4,7.6-2.2,12.2-5.4,13.8l0,0c-2.4,0.8-4,0.2-4.8-1.8l0,0
					c-0.8-1.2-0.8-2.2,0-3l0,0C174.6,296.8,177.2,292.6,178.3,288.2z M275.8,281.6L275.8,281.6c1.2-3.2,2.2-6.2,3-9l0,0
					c0.4-0.8,1.2-1.2,2.4-1.2l0,0c2,1.2,2.6,2.8,1.8,4.8l0,0c-0.8,2.8-2,5.6-3.6,8.4l0,0c1.6,2,3.4,3.8,5.4,5.4l0,0
					c0.4,1.6-0.4,2.4-2.4,2.4l0,0c-2-1.2-3.8-2.6-5.4-4.2l0,0c-5.2,7.2-9,11.5-11.4,13.1l0,0c-2.4,0.4-3.6-0.2-3.6-1.8l0,0
					c2.4-2,4.8-4.6,7.2-7.8l0,0c1.6-2,3-4.2,4.2-6.6l0,0c-2.8-2.8-4.8-5.2-6-7.2l0,0c-0.4-1.2-0.2-2.2,0.6-3c0.8-0.8,1.8-0.6,3,0.6
					l0,0C271.4,276.5,273,278.5,275.8,281.6z M277.6,265.5h17.3c1.2,0,2.6,0.2,4.2,0.6l0,0c2,0.4,4.2-0.2,6.6-1.8l0,0
					c1.2-0.4,2.2,0,3,1.2l0,0c2.4,2,3.4,3.6,3,4.8l0,0c-0.4,0.8-0.6,1.8-0.6,3l0,0v12.5c0.4,8,0.8,14.1,1.2,18.5l0,0
					c0,1.2-1.4,2.4-4.2,3.6l0,0c-2.4,0.4-3.6-0.2-3.6-1.8l0,0c0-23.1-0.4-34.9-1.2-35.3l0,0c-2-0.8-4-1.2-6-1.2l0,0h-31.7
					c-1.2,0.4-2,1-2.4,1.8l0,0c0.4,2,0.6,4.8,0.6,8.4l0,0c0,6.4-0.6,12.1-1.8,17.3l0,0c-0.8,2-2.2,4.2-4.2,6.6s-5,3-9,1.8l0,0
					c-1.2-0.8-1.8-1.6-1.8-2.4l0,0c0.4-0.8,1.2-1.6,2.4-2.4l0,0c2-1.6,3.8-3.2,5.4-4.8l0,0c1.6-2.8,2.6-5.6,3-8.4l0,0v-11.3
					c-0.4-4-1-7-1.8-9l0,0c0.4-2,1.4-3.2,3-3.6l0,0c1.6,0.8,3.4,1.6,5.4,2.4l0,0C268.8,265.7,273.2,265.5,277.6,265.5L277.6,265.5z
					 M295.5,272.7L295.5,272.7c0-0.8,0.8-1.2,2.4-1.2l0,0c0.8,0.8,1.6,1.8,2.4,3l0,0c0,0.4-0.2,1.2-0.6,2.4l0,0
					c-1.2,2.4-2.6,5.2-4.2,8.4l0,0c1.6,2,4,5,7.2,9l0,0c0.8,1.2,1,2.2,0.6,3l0,0c-0.8,0.8-1.8,0.8-3,0l0,0c-2-1.6-4.4-4.4-7.2-8.4
					l0,0c-1.6,2.4-3.8,5.2-6.6,8.4l0,0c-3.2,2.8-5.4,4-6.6,3.6l0,0c-1.6-0.4-2-1-1.2-1.8l0,0c3.6-2.8,7.4-7.2,11.4-13.1l0,0
					c-2-2.8-3.4-5-4.2-6.6c-0.8-1.6-0.6-2.8,0.6-3.6l0,0c0.8-0.4,1.6-0.4,2.4,0l0,0c0.8,1.6,2,3.6,3.6,6l0,0
					C294.1,277.6,295.1,274.7,295.5,272.7z M365.4,263.1L365.4,263.1c1.6-2.4,3.4-2.8,5.4-1.2l0,0c1.6,1.6,1.4,3.2-0.6,4.8l0,0
					c2.8,1.2,5.8,1.6,9,1.2l0,0c1.6-0.8,3-0.4,4.2,1.2l0,0c0.8,1.2,1,2.4,0.6,3.6l0,0c-1.6,3.2-4.2,5.8-7.8,7.8l0,0
					c7.6,3.6,14.5,5.8,20.9,6.6l0,0c-4,6.8-8,8.6-12,5.4l0,0c-3.2-2.8-7.4-5.8-12.6-9l0,0c-4.4,2-8.6,3.6-12.5,4.8l0,0
					c-1.6,0.4-3.2,0.6-4.8,0.6l0,0c-2,0-3.4-1-4.2-3l0,0c6-0.8,11.6-2.4,16.7-4.8l0,0c-3.2-2.8-5.8-4.8-7.8-6l0,0
					c-1.6,0.8-3.6,1.6-6,2.4l0,0c-1.2,0-1.8-0.6-1.8-1.8l0,0C357,272.9,361.4,268.7,365.4,263.1z M343.9,264.3L343.9,264.3
					c1.2-1.6,2.6-2.2,4.2-1.8l0,0c2.4,2,2.8,3.8,1.2,5.4l0,0c-5.2,3.2-9.8,6.4-13.7,9.6l0,0c-1.2,1.6,1,2.2,6.6,1.8l0,0
					c1.6-1.2,3.2-2.6,4.8-4.2l0,0c1.2-0.8,2.6-0.8,4.2,0l0,0c1.2,2.4,0,4.6-3.6,6.6l0,0c-2.8,1.6-5.6,3.2-8.4,4.8l0,0
					c-1.6,1.6-1.6,2.2,0,1.8l0,0c6.4-1.6,9.8-2,10.2-1.2c0.4,0.8-1.2,2-4.8,3.6l0,0c-3.2,1.6-6.6,2.8-10.2,3.6l0,0
					c-2,0.4-3.4,0-4.2-1.2l0,0c-1.2-1.6-0.4-3.6,2.4-6l0,0c2-1.6,4.2-3,6.6-4.2l0,0c-2.8-0.8-5.6-0.6-8.4,0.6l0,0
					c-2.4,0.8-4,0-4.8-2.4l0,0c0-2,1-3.6,3-4.8l0,0c2.4-0.4,6-2.8,10.8-7.2l0,0C341.3,267.5,342.7,265.9,343.9,264.3z M331.9,298.4
					L331.9,298.4c7.2-0.8,14.2-2.4,20.9-4.8l0,0c1.2-0.4,1.8,0.2,1.8,1.8l0,0c-2,1.6-6.4,3.8-13.1,6.6l0,0c-3.2,1.2-7,2.4-11.4,3.6
					l0,0c-2.4,0.8-4,0-4.8-2.4l0,0C325.4,300.4,327.6,298.8,331.9,298.4z M360,289.4L360,289.4c6,1.2,12,1.2,17.9,0l0,0
					c2.8,0,4.6,1.2,5.4,3.6l0,0c-0.8,3.6-1.4,7.6-1.8,12l0,0c0,2.4-1.4,3.2-4.2,2.4l0,0c-5.6-1.6-11-1.6-16.1,0l0,0
					c-1.6,0.8-2.8,0.2-3.6-1.8l0,0c0-4.8-0.4-9.2-1.2-13.2l0,0C356.4,290.8,357.6,289.8,360,289.4z M364.2,294.2L364.2,294.2
					c-2.4,0.4-3,3-1.8,7.8l0,0c4,0.8,8.4,0.8,13.1,0l0,0c2-1.2,2.2-3.8,0.6-7.8l0,0C371.8,293.4,367.8,293.4,364.2,294.2z
					 M366.6,270.3l-2.4,2.4c2.4,2.4,4.8,4.2,7.2,5.4l0,0c2-0.8,3.8-2,5.4-3.6l0,0c1.2-1.6,1-2.6-0.6-3l0,0
					C372.6,271.1,369.4,270.7,366.6,270.3L366.6,270.3z"/>
			</g>
			<g transform="translate(170.34999084472656,0)">
			</g>
		</g>
	</g>
</g>
</svg>
